<svg width="32" height="17" viewBox="0 0 32 17" fill="none" xmlns="http://www.w3.org/2000/svg">
<path d="M1.33333 16.8594C0.955556 16.8594 0.638889 16.7316 0.383333 16.476C0.127778 16.2205 0 15.9038 0 15.526V14.7594C0 13.8038 0.488889 13.026 1.46667 12.426C2.44444 11.826 3.73333 11.526 5.33333 11.526C5.62222 11.526 5.9 11.5316 6.16667 11.5427C6.43333 11.5538 6.68889 11.5816 6.93333 11.626C6.62222 12.0927 6.38889 12.5816 6.23333 13.0927C6.07778 13.6038 6 14.1372 6 14.6927V16.8594H1.33333ZM9.33333 16.8594C8.95556 16.8594 8.63889 16.7316 8.38333 16.476C8.12778 16.2205 8 15.9038 8 15.526V14.6927C8 13.9816 8.19444 13.3316 8.58333 12.7427C8.97222 12.1538 9.52222 11.6372 10.2333 11.1927C10.9444 10.7483 11.7944 10.4149 12.7833 10.1927C13.7722 9.97049 14.8444 9.85938 16 9.85938C17.1778 9.85938 18.2611 9.97049 19.25 10.1927C20.2389 10.4149 21.0889 10.7483 21.8 11.1927C22.5111 11.6372 23.0556 12.1538 23.4333 12.7427C23.8111 13.3316 24 13.9816 24 14.6927V15.526C24 15.9038 23.8722 16.2205 23.6167 16.476C23.3611 16.7316 23.0444 16.8594 22.6667 16.8594H9.33333ZM26 16.8594V14.6927C26 14.1149 25.9278 13.5705 25.7833 13.0594C25.6389 12.5483 25.4222 12.0705 25.1333 11.626C25.3778 11.5816 25.6278 11.5538 25.8833 11.5427C26.1389 11.5316 26.4 11.526 26.6667 11.526C28.2667 11.526 29.5556 11.8205 30.5333 12.4094C31.5111 12.9983 32 13.7816 32 14.7594V15.526C32 15.9038 31.8722 16.2205 31.6167 16.476C31.3611 16.7316 31.0444 16.8594 30.6667 16.8594H26ZM5.33333 10.1927C4.6 10.1927 3.97222 9.9316 3.45 9.40938C2.92778 8.88715 2.66667 8.25938 2.66667 7.52604C2.66667 6.77049 2.92778 6.13715 3.45 5.62604C3.97222 5.11493 4.6 4.85938 5.33333 4.85938C6.08889 4.85938 6.72222 5.11493 7.23333 5.62604C7.74444 6.13715 8 6.77049 8 7.52604C8 8.25938 7.74444 8.88715 7.23333 9.40938C6.72222 9.9316 6.08889 10.1927 5.33333 10.1927ZM26.6667 10.1927C25.9333 10.1927 25.3056 9.9316 24.7833 9.40938C24.2611 8.88715 24 8.25938 24 7.52604C24 6.77049 24.2611 6.13715 24.7833 5.62604C25.3056 5.11493 25.9333 4.85938 26.6667 4.85938C27.4222 4.85938 28.0556 5.11493 28.5667 5.62604C29.0778 6.13715 29.3333 6.77049 29.3333 7.52604C29.3333 8.25938 29.0778 8.88715 28.5667 9.40938C28.0556 9.9316 27.4222 10.1927 26.6667 10.1927ZM16 8.85938C14.8889 8.85938 13.9444 8.47049 13.1667 7.69271C12.3889 6.91493 12 5.97049 12 4.85938C12 3.72604 12.3889 2.77604 13.1667 2.00938C13.9444 1.24271 14.8889 0.859375 16 0.859375C17.1333 0.859375 18.0833 1.24271 18.85 2.00938C19.6167 2.77604 20 3.72604 20 4.85938C20 5.97049 19.6167 6.91493 18.85 7.69271C18.0833 8.47049 17.1333 8.85938 16 8.85938Z" fill="#A0AEC0"/>
</svg>
