<svg width="24" height="24" viewBox="0 0 24 24" fill="none" xmlns="http://www.w3.org/2000/svg">
<path d="M2.66667 10.6667C1.93333 10.6667 1.30556 10.4056 0.783333 9.88333C0.261111 9.36111 0 8.73333 0 8V2.66667C0 1.93333 0.261111 1.30556 0.783333 0.783333C1.30556 0.261111 1.93333 0 2.66667 0H8C8.73333 0 9.36111 0.261111 9.88333 0.783333C10.4056 1.30556 10.6667 1.93333 10.6667 2.66667V8C10.6667 8.73333 10.4056 9.36111 9.88333 9.88333C9.36111 10.4056 8.73333 10.6667 8 10.6667H2.66667ZM2.66667 24C1.93333 24 1.30556 23.7389 0.783333 23.2167C0.261111 22.6944 0 22.0667 0 21.3333V16C0 15.2667 0.261111 14.6389 0.783333 14.1167C1.30556 13.5944 1.93333 13.3333 2.66667 13.3333H8C8.73333 13.3333 9.36111 13.5944 9.88333 14.1167C10.4056 14.6389 10.6667 15.2667 10.6667 16V21.3333C10.6667 22.0667 10.4056 22.6944 9.88333 23.2167C9.36111 23.7389 8.73333 24 8 24H2.66667ZM16 10.6667C15.2667 10.6667 14.6389 10.4056 14.1167 9.88333C13.5944 9.36111 13.3333 8.73333 13.3333 8V2.66667C13.3333 1.93333 13.5944 1.30556 14.1167 0.783333C14.6389 0.261111 15.2667 0 16 0H21.3333C22.0667 0 22.6944 0.261111 23.2167 0.783333C23.7389 1.30556 24 1.93333 24 2.66667V8C24 8.73333 23.7389 9.36111 23.2167 9.88333C22.6944 10.4056 22.0667 10.6667 21.3333 10.6667H16ZM16 24C15.2667 24 14.6389 23.7389 14.1167 23.2167C13.5944 22.6944 13.3333 22.0667 13.3333 21.3333V16C13.3333 15.2667 13.5944 14.6389 14.1167 14.1167C14.6389 13.5944 15.2667 13.3333 16 13.3333H21.3333C22.0667 13.3333 22.6944 13.5944 23.2167 14.1167C23.7389 14.6389 24 15.2667 24 16V21.3333C24 22.0667 23.7389 22.6944 23.2167 23.2167C22.6944 23.7389 22.0667 24 21.3333 24H16Z" fill="#A0AEC0"/>
</svg>
