<svg width="30" height="23" viewBox="0 0 30 23" fill="none" xmlns="http://www.w3.org/2000/svg">
<path d="M0.335938 18.5531C0.335938 17.7976 0.530382 17.1031 0.919271 16.4698C1.30816 15.8365 1.82483 15.3531 2.46927 15.0198C3.84705 14.3309 5.24705 13.8142 6.66927 13.4698C8.09149 13.1253 9.53594 12.9531 11.0026 12.9531C12.4693 12.9531 13.9137 13.1253 15.3359 13.4698C16.7582 13.8142 18.1582 14.3309 19.5359 15.0198C20.1804 15.3531 20.6971 15.8365 21.0859 16.4698C21.4748 17.1031 21.6693 17.7976 21.6693 18.5531V19.6198C21.6693 20.3531 21.4082 20.9809 20.8859 21.5031C20.3637 22.0253 19.7359 22.2865 19.0026 22.2865H3.0026C2.26927 22.2865 1.64149 22.0253 1.11927 21.5031C0.597049 20.9809 0.335938 20.3531 0.335938 19.6198V18.5531ZM23.6026 22.2865C23.847 21.8865 24.0304 21.4587 24.1526 21.0031C24.2748 20.5476 24.3359 20.0865 24.3359 19.6198V18.2865C24.3359 17.3087 24.0637 16.3698 23.5193 15.4698C22.9748 14.5698 22.2026 13.7976 21.2026 13.1531C22.3359 13.2865 23.4026 13.5142 24.4026 13.8365C25.4026 14.1587 26.3359 14.5531 27.2026 15.0198C28.0026 15.4642 28.6137 15.9587 29.0359 16.5031C29.4582 17.0476 29.6693 17.642 29.6693 18.2865V19.6198C29.6693 20.3531 29.4082 20.9809 28.8859 21.5031C28.3637 22.0253 27.7359 22.2865 27.0026 22.2865H23.6026ZM11.0026 11.6198C9.53594 11.6198 8.28038 11.0976 7.23594 10.0531C6.19149 9.00868 5.66927 7.75313 5.66927 6.28646C5.66927 4.81979 6.19149 3.56424 7.23594 2.51979C8.28038 1.47535 9.53594 0.953125 11.0026 0.953125C12.4693 0.953125 13.7248 1.47535 14.7693 2.51979C15.8137 3.56424 16.3359 4.81979 16.3359 6.28646C16.3359 7.75313 15.8137 9.00868 14.7693 10.0531C13.7248 11.0976 12.4693 11.6198 11.0026 11.6198ZM24.3359 6.28646C24.3359 7.75313 23.8137 9.00868 22.7693 10.0531C21.7248 11.0976 20.4693 11.6198 19.0026 11.6198C18.7582 11.6198 18.4471 11.592 18.0693 11.5365C17.6915 11.4809 17.3804 11.4198 17.1359 11.3531C17.7359 10.642 18.1971 9.85313 18.5193 8.98646C18.8415 8.11979 19.0026 7.21979 19.0026 6.28646C19.0026 5.35313 18.8415 4.45313 18.5193 3.58646C18.1971 2.71979 17.7359 1.9309 17.1359 1.21979C17.4471 1.10868 17.7582 1.03646 18.0693 1.00313C18.3804 0.969792 18.6915 0.953125 19.0026 0.953125C20.4693 0.953125 21.7248 1.47535 22.7693 2.51979C23.8137 3.56424 24.3359 4.81979 24.3359 6.28646Z" fill="#A0AEC0"/>
</svg>
