<svg width="26" height="28" viewBox="0 0 26 28" fill="none" xmlns="http://www.w3.org/2000/svg">
<path d="M16.6667 22.3125L23.2667 15.7125C23.5111 15.4681 23.8222 15.3458 24.2 15.3458C24.5778 15.3458 24.8889 15.4681 25.1333 15.7125C25.3778 15.9569 25.5 16.2681 25.5 16.6458C25.5 17.0236 25.3778 17.3347 25.1333 17.5792L17.6 25.1125C17.3333 25.3792 17.0222 25.5125 16.6667 25.5125C16.3111 25.5125 16 25.3792 15.7333 25.1125L11.9333 21.3125C11.6889 21.0681 11.5667 20.7569 11.5667 20.3792C11.5667 20.0014 11.6889 19.6903 11.9333 19.4458C12.1778 19.2014 12.4889 19.0792 12.8667 19.0792C13.2444 19.0792 13.5556 19.2014 13.8 19.4458L16.6667 22.3125ZM2.66667 27.4792C1.93333 27.4792 1.30556 27.2181 0.783333 26.6958C0.261111 26.1736 0 25.5458 0 24.8125V6.14583C0 5.4125 0.261111 4.78472 0.783333 4.2625C1.30556 3.74028 1.93333 3.47917 2.66667 3.47917H8.23333C8.47778 2.70139 8.95556 2.0625 9.66667 1.5625C10.3778 1.0625 11.1556 0.8125 12 0.8125C12.8889 0.8125 13.6833 1.0625 14.3833 1.5625C15.0833 2.0625 15.5556 2.70139 15.8 3.47917H21.3333C22.0667 3.47917 22.6944 3.74028 23.2167 4.2625C23.7389 4.78472 24 5.4125 24 6.14583V11.4792C24 11.8569 23.8722 12.1736 23.6167 12.4292C23.3611 12.6847 23.0444 12.8125 22.6667 12.8125C22.2889 12.8125 21.9722 12.6847 21.7167 12.4292C21.4611 12.1736 21.3333 11.8569 21.3333 11.4792V6.14583H18.6667V8.8125C18.6667 9.19028 18.5389 9.50694 18.2833 9.7625C18.0278 10.0181 17.7111 10.1458 17.3333 10.1458H6.66667C6.28889 10.1458 5.97222 10.0181 5.71667 9.7625C5.46111 9.50694 5.33333 9.19028 5.33333 8.8125V6.14583H2.66667V24.8125H9.33333C9.71111 24.8125 10.0278 24.9403 10.2833 25.1958C10.5389 25.4514 10.6667 25.7681 10.6667 26.1458C10.6667 26.5236 10.5389 26.8403 10.2833 27.0958C10.0278 27.3514 9.71111 27.4792 9.33333 27.4792H2.66667ZM12 6.14583C12.3778 6.14583 12.6944 6.01806 12.95 5.7625C13.2056 5.50694 13.3333 5.19028 13.3333 4.8125C13.3333 4.43472 13.2056 4.11806 12.95 3.8625C12.6944 3.60694 12.3778 3.47917 12 3.47917C11.6222 3.47917 11.3056 3.60694 11.05 3.8625C10.7944 4.11806 10.6667 4.43472 10.6667 4.8125C10.6667 5.19028 10.7944 5.50694 11.05 5.7625C11.3056 6.01806 11.6222 6.14583 12 6.14583Z" fill="#A0AEC0"/>
</svg>
