<svg width="36" height="36" viewBox="0 0 36 36" fill="none" xmlns="http://www.w3.org/2000/svg">
<g clip-path="url(#clip0_19436_1843)">
<path d="M18.7706 12.0397C14.7347 12.0397 10.6484 11.1155 10.6484 9.34959C10.6484 7.58364 14.7347 6.66406 18.7706 6.66406C22.8066 6.66406 26.8928 7.58821 26.8928 9.35416C26.8928 11.1201 22.8066 12.0397 18.7706 12.0397ZM18.7706 7.57906C14.1078 7.57906 11.5636 8.75026 11.5636 9.35416C11.5636 9.95806 14.1078 11.1293 18.7706 11.1293C23.4335 11.1293 25.9777 9.95806 25.9777 9.35416C25.9777 8.75026 23.4335 7.57906 18.7706 7.57906Z" fill="white"/>
<path d="M18.7739 34.8618C14.7379 34.8618 10.6562 33.9376 10.6562 32.1763C10.6562 31.9246 10.8622 31.7188 11.1138 31.7188C11.3655 31.7188 11.5714 31.9246 11.5714 32.1763C11.5714 32.8808 14.4451 33.9468 18.7739 33.9468C23.5053 33.9468 25.9809 32.7939 25.9809 32.1763C25.9809 31.9246 26.1868 31.7188 26.4385 31.7188C26.6902 31.7188 26.8961 31.9246 26.8961 32.1763C26.8961 33.9376 22.8098 34.8618 18.7739 34.8618Z" fill="white"/>
<path d="M11.106 32.6349C10.8544 32.6349 10.6484 32.429 10.6484 32.1774V9.34813C10.6484 9.0965 10.8544 8.89062 11.106 8.89062C11.3577 8.89062 11.5636 9.0965 11.5636 9.34813V32.1774C11.5636 32.429 11.3623 32.6349 11.106 32.6349Z" fill="white"/>
<path d="M26.4342 32.6349C26.1825 32.6349 25.9766 32.429 25.9766 32.1774V9.34813C25.9766 9.0965 26.1825 8.89062 26.4342 8.89062C26.6858 8.89062 26.8917 9.0965 26.8917 9.34813V32.1774C26.8917 32.429 26.6858 32.6349 26.4342 32.6349Z" fill="white"/>
<path d="M18.7673 10.585C18.1358 10.585 14.9922 10.5255 14.9922 9.35891C14.9922 8.19229 18.1358 8.13281 18.7673 8.13281C19.3988 8.13281 22.5424 8.19229 22.5424 9.35891C22.5424 10.5255 19.3988 10.585 18.7673 10.585ZM15.8525 9.35891C16.1819 9.54649 17.184 9.80726 18.7673 9.80726C20.3506 9.80726 21.3527 9.54191 21.6821 9.35891C21.3527 9.17134 20.3506 8.91056 18.7673 8.91056C17.184 8.91056 16.1819 9.17134 15.8525 9.35891Z" fill="white"/>
<path d="M4.54353 35.0303C4.29185 35.0303 4.08594 34.8244 4.08594 34.5728V11.254C4.08594 11.1259 4.14085 11.0024 4.23694 10.9155C5.60971 9.66648 7.36685 8.71488 9.46261 8.07438C9.70513 8.00118 9.96138 8.13843 10.0346 8.3809C10.1078 8.62338 9.97053 8.87958 9.72801 8.95278C7.84274 9.52465 6.25033 10.371 5.00112 11.4599V34.5728C5.00112 34.8244 4.7952 35.0303 4.54353 35.0303Z" fill="white"/>
<path d="M4.54293 35.0227C4.41938 35.0227 4.29583 34.9723 4.20432 34.8717C4.03501 34.6841 4.04874 34.3959 4.23635 34.2266C5.60911 32.9822 7.36626 32.0306 9.46201 31.3947C9.70454 31.3215 9.96079 31.4587 10.034 31.7012C10.1072 31.9437 9.96994 32.1999 9.72742 32.2731C7.76436 32.8678 6.12161 33.7508 4.84952 34.9037C4.76257 34.9815 4.65275 35.0227 4.54293 35.0227Z" fill="white"/>
</g>
<path d="M33.2599 1.91974L33.0959 9.10866H31.495L31.3359 1.91974H33.2599ZM32.2955 12.2109C31.9938 12.2109 31.7353 12.1049 31.5199 11.8928C31.3078 11.6806 31.2017 11.4221 31.2017 11.1172C31.2017 10.8189 31.3078 10.5637 31.5199 10.3516C31.7353 10.1394 31.9938 10.0334 32.2955 10.0334C32.5904 10.0334 32.8456 10.1394 33.0611 10.3516C33.2798 10.5637 33.3892 10.8189 33.3892 11.1172C33.3892 11.3194 33.3378 11.5033 33.2351 11.669C33.1357 11.8348 33.0031 11.9673 32.8374 12.0668C32.675 12.1629 32.4943 12.2109 32.2955 12.2109Z" fill="white"/>
<defs>
<clipPath id="clip0_19436_1843">
<rect width="29.2857" height="29.28" fill="white" transform="translate(0.84375 6.20312)"/>
</clipPath>
</defs>
</svg>
