<svg width="32" height="33" viewBox="0 0 32 33" fill="none" xmlns="http://www.w3.org/2000/svg">
<g clip-path="url(#clip0_18121_17569)">
<path d="M13.6842 1.80119C11.3626 1.70182 8.99386 2.21313 7.18751 3.33149C5.48964 4.38301 4.55663 5.81756 4.55844 7.36954C4.55844 7.39122 4.55844 7.4111 4.55844 7.43278L4.50781 25.4694C4.50781 26.9636 5.4571 28.3385 7.19113 29.3394C7.36109 29.437 7.55276 29.5345 7.76612 29.6411L7.80952 29.6628C7.99033 29.7459 8.17115 29.8254 8.36282 29.9031L8.42429 29.9302L8.46407 29.9447C8.61053 30.0007 8.7588 30.0567 8.9125 30.1073L8.98121 30.129C9.11139 30.1741 9.2452 30.2139 9.38443 30.2554L9.44229 30.2735L9.52185 30.2934L9.77499 30.362L9.93049 30.4L10.2089 30.4632H10.2415L10.3229 30.4813H10.3446L10.5778 30.5264L10.6483 30.5391L10.7405 30.5572C10.8545 30.577 10.9684 30.5933 11.1022 30.6114L11.2016 30.6276L11.5524 30.671H11.632L11.9394 30.7017H11.9556H12.0497H12.1166L12.3498 30.718H12.4692H12.5487H12.7476H12.9284H13.3552H13.583H13.7312L14.0115 30.7053L14.1761 30.6927L14.4473 30.671L14.6028 30.6547C14.742 30.6403 14.8794 30.624 15.0132 30.6059H15.0838C15.2411 30.5843 15.3984 30.559 15.5539 30.5319H15.5973L15.6804 30.5156L15.722 30.5066L15.9408 30.465L16.0891 30.4325H16.118L16.3296 30.3837L16.5104 30.3385L16.7183 30.2843L16.8992 30.2338L17.1035 30.1723L17.2572 30.1217C17.3801 30.082 17.5013 30.0386 17.6188 29.9953L17.6984 29.9664C17.8412 29.9122 17.9822 29.8543 18.1197 29.7947L18.2282 29.7459C18.3348 29.6972 18.4415 29.6484 18.5428 29.5978L18.6603 29.5382C18.7959 29.4695 18.9279 29.399 19.0545 29.325L19.1648 29.2599L19.2299 29.2184L19.257 29.2021L19.4143 29.1027L19.5535 29.0088L19.7018 28.904L19.8302 28.8064C19.879 28.7703 19.926 28.7342 19.9694 28.698L20.0924 28.5969L20.228 28.4794L20.2732 28.4379L20.3202 28.3927C20.3907 28.3258 20.4594 28.2572 20.5263 28.1885L20.5914 28.1199C20.6722 28.0307 20.7481 27.9422 20.8192 27.8543L20.8428 27.8272C20.8572 27.8073 20.8717 27.7892 20.8898 27.7621C20.935 27.7025 20.9784 27.6429 21.0218 27.5815L21.0724 27.5056L21.0869 27.4821C21.123 27.4261 21.1574 27.3701 21.1845 27.3231C21.1972 27.305 21.208 27.2852 21.217 27.2707C21.2261 27.2563 21.2424 27.2255 21.255 27.1984C21.2677 27.1713 21.2966 27.1207 21.3147 27.0828H25.5241V1.80119H13.6842ZM13.0315 3.23393H13.1219C13.3335 3.23393 13.5432 3.23393 13.7548 3.25019C13.9971 3.26284 14.2375 3.28452 14.478 3.31162C15.831 3.44536 17.1388 3.87069 18.3113 4.55827C19.577 5.34058 20.2876 6.34513 20.2895 7.3858V7.39845C20.2895 8.42648 19.5951 9.41838 18.3457 10.1917C17.1639 10.887 15.8435 11.3139 14.478 11.4419C14.2393 11.4708 13.9971 11.4907 13.7548 11.5015C13.5125 11.5124 13.272 11.5178 13.0315 11.5142C11.198 11.4979 9.38985 11.0553 7.9831 10.1953C6.71739 9.41296 6.00678 8.40841 6.00497 7.36774V7.3587C6.00497 6.32887 6.6975 5.33335 7.95055 4.56007C9.35007 3.69284 11.1872 3.252 13.0315 3.23393ZM24.0613 25.6374H21.6854C21.6854 25.623 21.6854 25.6085 21.6854 25.5923L21.7378 7.38942C21.7378 5.83021 20.7885 4.38843 19.0726 3.33149C19.0256 3.30259 18.9785 3.27368 18.9297 3.24838H24.0631L24.0613 25.6374Z" fill="white"/>
<path d="M10.935 7.8728C11.5867 8.20398 12.3027 8.37731 13.0288 8.37966C13.2703 8.38471 13.5118 8.37471 13.7521 8.34974C13.9958 8.32453 14.2375 8.2814 14.4754 8.22068C14.7894 8.14348 15.093 8.02665 15.3794 7.8728C16.5927 7.19575 16.5873 6.09787 15.3541 5.42081C15.0749 5.26955 14.7785 5.15519 14.4717 5.08041C14.2342 5.01753 13.9924 4.97314 13.7485 4.94762C13.5084 4.92015 13.2667 4.90952 13.0252 4.91582C12.2942 4.91357 11.5726 5.08641 10.9169 5.42081C9.69819 6.09787 9.70542 7.19575 10.935 7.8728Z" fill="#A0AEC0"/>
</g>
<defs>
<clipPath id="clip0_18121_17569">
<rect width="21" height="30" fill="white" transform="translate(4.50781 0.859375)"/>
</clipPath>
</defs>
</svg>
