<svg width="32" height="33" viewBox="0 0 32 33" fill="none" xmlns="http://www.w3.org/2000/svg">
<g clip-path="url(#clip0_19369_14678)">
<path d="M19.5859 7.32031C15.1759 7.32031 10.7109 6.31031 10.7109 4.38031C10.7109 2.45031 15.1759 1.44531 19.5859 1.44531C23.9959 1.44531 28.4609 2.45531 28.4609 4.38531C28.4609 6.31531 23.9959 7.32031 19.5859 7.32031ZM19.5859 2.44531C14.4909 2.44531 11.7109 3.72531 11.7109 4.38531C11.7109 5.04531 14.4909 6.32531 19.5859 6.32531C24.6809 6.32531 27.4609 5.04531 27.4609 4.38531C27.4609 3.72531 24.6809 2.44531 19.5859 2.44531Z" fill="white"/>
<path d="M19.5809 32.2709C15.1709 32.2709 10.7109 31.2609 10.7109 29.3359C10.7109 29.0609 10.9359 28.8359 11.2109 28.8359C11.4859 28.8359 11.7109 29.0609 11.7109 29.3359C11.7109 30.1059 14.8509 31.2709 19.5809 31.2709C24.7509 31.2709 27.4559 30.0109 27.4559 29.3359C27.4559 29.0609 27.6809 28.8359 27.9559 28.8359C28.2309 28.8359 28.4559 29.0609 28.4559 29.3359C28.4559 31.2609 23.9909 32.2709 19.5809 32.2709Z" fill="white"/>
<path d="M11.2109 29.8328C10.9359 29.8328 10.7109 29.6078 10.7109 29.3328V4.38281C10.7109 4.10781 10.9359 3.88281 11.2109 3.88281C11.4859 3.88281 11.7109 4.10781 11.7109 4.38281V29.3328C11.7109 29.6078 11.4909 29.8328 11.2109 29.8328Z" fill="white"/>
<path d="M27.9609 29.8328C27.6859 29.8328 27.4609 29.6078 27.4609 29.3328V4.38281C27.4609 4.10781 27.6859 3.88281 27.9609 3.88281C28.2359 3.88281 28.4609 4.10781 28.4609 4.38281V29.3328C28.4609 29.6078 28.2359 29.8328 27.9609 29.8328Z" fill="white"/>
<path d="M19.5859 5.72688C18.8959 5.72688 15.4609 5.66188 15.4609 4.38688C15.4609 3.11188 18.8959 3.04688 19.5859 3.04688C20.2759 3.04688 23.7109 3.11188 23.7109 4.38688C23.7109 5.66188 20.2759 5.72688 19.5859 5.72688ZM16.4009 4.38688C16.7609 4.59188 17.8559 4.87688 19.5859 4.87688C21.3159 4.87688 22.4109 4.58688 22.7709 4.38688C22.4109 4.18188 21.3159 3.89688 19.5859 3.89688C17.8559 3.89688 16.7609 4.18188 16.4009 4.38688Z" fill="white"/>
<path d="M21.8312 7.99844C21.5962 7.99844 21.4062 7.80844 21.4062 7.57344V6.82344C21.4062 6.58844 21.5962 6.39844 21.8312 6.39844C22.0662 6.39844 22.2563 6.58844 22.2563 6.82344V7.57344C22.2563 7.80844 22.0662 7.99844 21.8312 7.99844Z" fill="white"/>
<path d="M21.8312 32.2016C21.5962 32.2016 21.4062 32.0116 21.4062 31.7766V31.0266C21.4062 30.7916 21.5962 30.6016 21.8312 30.6016C22.0662 30.6016 22.2563 30.7916 22.2563 31.0266V31.7766C22.2563 32.0116 22.0662 32.2016 21.8312 32.2016Z" fill="white"/>
<path d="M4.03906 32.4425C3.76406 32.4425 3.53906 32.2175 3.53906 31.9425V6.45746C3.53906 6.31746 3.59906 6.18246 3.70406 6.08746C5.20406 4.72246 7.12406 3.68246 9.41406 2.98246C9.67906 2.90246 9.95906 3.05246 10.0391 3.31746C10.1191 3.58246 9.96906 3.86246 9.70406 3.94246C7.64406 4.56746 5.90406 5.49246 4.53906 6.68246V31.9425C4.53906 32.2175 4.31406 32.4425 4.03906 32.4425Z" fill="white"/>
<path d="M4.03841 32.4475C3.90341 32.4475 3.76841 32.3925 3.66841 32.2825C3.48341 32.0775 3.49841 31.7625 3.70341 31.5775C5.20341 30.2175 7.12341 29.1775 9.41341 28.4825C9.67841 28.4025 9.95841 28.5525 10.0384 28.8175C10.1184 29.0825 9.96841 29.3625 9.70341 29.4425C7.55841 30.0925 5.76341 31.0575 4.37341 32.3175C4.27841 32.4025 4.15841 32.4475 4.03841 32.4475Z" fill="white"/>
</g>
<defs>
<clipPath id="clip0_19369_14678">
<rect width="32" height="32" fill="white" transform="translate(0 0.945312)"/>
</clipPath>
</defs>
</svg>
