<svg width="32" height="33" viewBox="0 0 32 33" fill="none" xmlns="http://www.w3.org/2000/svg">
<path d="M0 24.9453V22.8453C0 21.8898 0.488889 21.112 1.46667 20.512C2.44444 19.912 3.73333 19.612 5.33333 19.612C5.62222 19.612 5.9 19.6175 6.16667 19.6286C6.43333 19.6398 6.68889 19.6675 6.93333 19.712C6.62222 20.1786 6.38889 20.6675 6.23333 21.1786C6.07778 21.6898 6 22.2231 6 22.7786V24.9453H0ZM8 24.9453V22.7786C8 22.0675 8.19444 21.4175 8.58333 20.8286C8.97222 20.2398 9.52222 19.7231 10.2333 19.2786C10.9444 18.8342 11.7944 18.5009 12.7833 18.2786C13.7722 18.0564 14.8444 17.9453 16 17.9453C17.1778 17.9453 18.2611 18.0564 19.25 18.2786C20.2389 18.5009 21.0889 18.8342 21.8 19.2786C22.5111 19.7231 23.0556 20.2398 23.4333 20.8286C23.8111 21.4175 24 22.0675 24 22.7786V24.9453H8ZM26 24.9453V22.7786C26 22.2009 25.9278 21.6564 25.7833 21.1453C25.6389 20.6342 25.4222 20.1564 25.1333 19.712C25.3778 19.6675 25.6278 19.6398 25.8833 19.6286C26.1389 19.6175 26.4 19.612 26.6667 19.612C28.2667 19.612 29.5556 19.9064 30.5333 20.4953C31.5111 21.0842 32 21.8675 32 22.8453V24.9453H26ZM10.8333 22.2786H21.2C20.9778 21.8342 20.3611 21.4453 19.35 21.112C18.3389 20.7786 17.2222 20.612 16 20.612C14.7778 20.612 13.6611 20.7786 12.65 21.112C11.6389 21.4453 11.0333 21.8342 10.8333 22.2786ZM5.33333 18.2786C4.6 18.2786 3.97222 18.0175 3.45 17.4953C2.92778 16.9731 2.66667 16.3453 2.66667 15.612C2.66667 14.8564 2.92778 14.2231 3.45 13.712C3.97222 13.2009 4.6 12.9453 5.33333 12.9453C6.08889 12.9453 6.72222 13.2009 7.23333 13.712C7.74444 14.2231 8 14.8564 8 15.612C8 16.3453 7.74444 16.9731 7.23333 17.4953C6.72222 18.0175 6.08889 18.2786 5.33333 18.2786ZM26.6667 18.2786C25.9333 18.2786 25.3056 18.0175 24.7833 17.4953C24.2611 16.9731 24 16.3453 24 15.612C24 14.8564 24.2611 14.2231 24.7833 13.712C25.3056 13.2009 25.9333 12.9453 26.6667 12.9453C27.4222 12.9453 28.0556 13.2009 28.5667 13.712C29.0778 14.2231 29.3333 14.8564 29.3333 15.612C29.3333 16.3453 29.0778 16.9731 28.5667 17.4953C28.0556 18.0175 27.4222 18.2786 26.6667 18.2786ZM16 16.9453C14.8889 16.9453 13.9444 16.5564 13.1667 15.7786C12.3889 15.0009 12 14.0564 12 12.9453C12 11.812 12.3889 10.862 13.1667 10.0953C13.9444 9.32865 14.8889 8.94531 16 8.94531C17.1333 8.94531 18.0833 9.32865 18.85 10.0953C19.6167 10.862 20 11.812 20 12.9453C20 14.0564 19.6167 15.0009 18.85 15.7786C18.0833 16.5564 17.1333 16.9453 16 16.9453ZM16 14.2786C16.3778 14.2786 16.6944 14.1509 16.95 13.8953C17.2056 13.6398 17.3333 13.3231 17.3333 12.9453C17.3333 12.5675 17.2056 12.2509 16.95 11.9953C16.6944 11.7398 16.3778 11.612 16 11.612C15.6222 11.612 15.3056 11.7398 15.05 11.9953C14.7944 12.2509 14.6667 12.5675 14.6667 12.9453C14.6667 13.3231 14.7944 13.6398 15.05 13.8953C15.3056 14.1509 15.6222 14.2786 16 14.2786Z" fill="white"/>
</svg>
