<svg width="44" height="44" viewBox="0 0 44 44" fill="none" xmlns="http://www.w3.org/2000/svg">
<g clip-path="url(#clip0_18121_16625)">
<path d="M22 43.3125C33.7706 43.3125 43.3125 33.7706 43.3125 22C43.3125 10.2294 33.7706 0.6875 22 0.6875C10.2294 0.6875 0.6875 10.2294 0.6875 22C0.6875 33.7706 10.2294 43.3125 22 43.3125Z" fill="#E6ECFF"/>
<path d="M39.1041 34.7014C37.1164 32.0403 34.5355 29.8794 31.5663 28.3906C28.5971 26.9018 25.3216 26.126 22.0001 26.125C18.6785 26.124 15.4025 26.8977 12.4324 28.3846C9.46232 29.8716 6.87998 32.0308 4.89062 34.6907C6.86987 37.3641 9.44799 39.5365 12.4183 41.0338C15.3886 42.531 18.6684 43.3115 21.9947 43.3125C25.321 43.3136 28.6013 42.5352 31.5725 41.0398C34.5437 39.5444 37.1232 37.3736 39.1041 34.7014Z" fill="#4294FF"/>
<path d="M22 23.375C26.5563 23.375 30.25 19.6813 30.25 15.125C30.25 10.5687 26.5563 6.875 22 6.875C17.4437 6.875 13.75 10.5687 13.75 15.125C13.75 19.6813 17.4437 23.375 22 23.375Z" fill="#4294FF"/>
</g>
<defs>
<clipPath id="clip0_18121_16625">
<rect width="44" height="44" fill="white"/>
</clipPath>
</defs>
</svg>
