<svg width="60" height="43" viewBox="0 0 60 43" fill="none" xmlns="http://www.w3.org/2000/svg">
<path d="M59.8805 30.1632L47.0571 42.8798C47.0196 42.9178 46.9749 42.9481 46.9254 42.9687C46.876 42.9894 46.8229 43 46.7693 43C46.7157 43 46.6626 42.9894 46.6131 42.9687C46.5637 42.9481 46.5189 42.9178 46.4814 42.8798L16.7741 13.4083C16.6979 13.3325 16.6551 13.2298 16.6551 13.1227C16.6551 13.0157 16.6979 12.913 16.7741 12.8372L29.5925 0.120619C29.6304 0.0824148 29.6756 0.0520823 29.7254 0.0313733C29.7753 0.0106643 29.8288 0 29.8828 0C29.9369 0 29.9904 0.0106643 30.0402 0.0313733C30.0901 0.0520823 30.1353 0.0824148 30.1732 0.120619L59.8805 29.587C59.9571 29.6637 60 29.7672 60 29.8751C60 29.983 59.9571 30.0866 59.8805 30.1632ZM0.11947 30.1632L12.9429 42.8798C12.9804 42.9178 13.0252 42.9481 13.0746 42.9687C13.1241 42.9894 13.1771 43 13.2308 43C13.2844 43 13.3374 42.9894 13.3869 42.9687C13.4363 42.9481 13.4811 42.9178 13.5186 42.8798L26.342 30.1632C26.4186 30.0866 26.4615 29.983 26.4615 29.8751C26.4615 29.7672 26.4186 29.6637 26.342 29.587L13.5186 16.8705C13.4422 16.7949 13.3387 16.7524 13.2308 16.7524C13.1229 16.7524 13.0193 16.7949 12.9429 16.8705L0.11947 29.587C0.0429341 29.6637 0 29.7672 0 29.8751C0 29.983 0.0429341 30.0866 0.11947 30.1632Z" fill="#1E3A8A"/>
</svg>
